<?xml version="1.0" standalone="no"?>
<!DOCTYPE svg PUBLIC "-//W3C//DTD SVG 20010904//EN"
 "http://www.w3.org/TR/2001/REC-SVG-20010904/DTD/svg10.dtd">
<svg version="1.0" xmlns="http://www.w3.org/2000/svg"
 width="780.000000pt" height="780.000000pt" viewBox="0 0 780.000000 780.000000"
 preserveAspectRatio="xMidYMid meet">
<metadata>
Created by potrace 1.14, written by Peter Selinger 2001-2017
</metadata>
<g transform="translate(0.000000,780.000000) scale(0.100000,-0.100000)"
fill="#000000" stroke="none">
<path d="M1196 7555 c-18 -14 -19 -20 -8 -73 7 -32 12 -82 12 -111 0 -46 4
-56 32 -81 17 -16 34 -28 37 -27 3 0 20 -6 36 -15 33 -17 157 -38 220 -36 59
1 137 29 158 55 10 13 25 23 32 23 14 0 51 47 44 55 -2 2 -42 6 -89 9 -93 6
-157 19 -173 35 -6 6 -22 11 -37 11 -27 1 -110 69 -130 108 -14 28 -67 62 -95
62 -11 -1 -29 -7 -39 -15z"/>
<path d="M7780 7430 c-8 -4 -51 -25 -95 -45 -139 -64 -248 -115 -300 -141 -27
-13 -62 -27 -78 -30 -15 -3 -29 -10 -32 -14 -6 -10 -259 -135 -295 -145 -14
-5 -42 -19 -62 -31 -21 -13 -44 -24 -51 -24 -8 0 -22 -9 -32 -20 -10 -11 -22
-20 -27 -20 -5 0 -37 -18 -70 -40 -34 -22 -59 -40 -54 -40 4 0 1 -7 -8 -15 -8
-8 -21 -15 -28 -15 -10 0 -10 -2 -1 -8 7 -4 19 -24 28 -45 13 -31 13 -37 2
-37 -12 0 -12 -8 -4 -40 7 -25 17 -40 27 -40 15 0 50 -51 50 -74 0 -18 21 -35
36 -29 8 3 14 16 14 29 0 33 9 30 58 -17 33 -33 40 -45 31 -55 -10 -12 0 -14
59 -14 66 0 71 -2 74 -22 3 -21 9 -23 61 -23 44 0 62 -5 72 -18 7 -9 20 -17
29 -17 9 0 16 -8 16 -19 0 -16 10 -19 71 -23 52 -3 75 -8 84 -21 17 -23 62
-21 114 5 32 17 45 20 48 11 3 -8 22 -13 44 -13 34 0 39 -3 40 -22 0 -13 3
-17 6 -10 2 6 16 12 29 12 21 0 24 5 24 35 0 22 8 44 22 60 20 24 24 24 34 10
11 -15 14 -14 28 12 8 15 15 22 16 16 0 -7 9 -13 20 -13 20 0 20 7 20 480 0
264 -1 480 -2 479 -2 0 -10 -4 -18 -9z"/>
<path d="M4130 7388 c-14 -6 -83 -14 -155 -18 -107 -6 -140 -12 -185 -32 -30
-14 -79 -28 -108 -31 -80 -9 -182 -69 -249 -144 -30 -35 -63 -63 -72 -63 -17
0 -51 -29 -51 -43 0 -7 26 -3 73 10 16 4 17 2 5 -17 -8 -13 -20 -19 -32 -16
-12 3 -20 -2 -23 -13 -2 -10 -25 -35 -49 -56 -25 -20 -43 -39 -40 -42 3 -3 12
0 21 7 25 21 18 -4 -26 -93 -42 -85 -64 -117 -83 -117 -6 0 -20 -18 -30 -41
-11 -22 -23 -42 -28 -45 -11 -7 -10 40 1 52 5 5 11 27 15 49 l6 40 -25 -45
c-40 -74 -46 -93 -41 -116 4 -13 2 -26 -4 -29 -5 -3 -10 -22 -10 -41 0 -24 -5
-34 -15 -34 -20 0 -19 -5 10 -36 21 -22 22 -28 10 -40 -7 -8 -25 -14 -40 -14
-33 0 -65 -17 -65 -34 0 -20 -54 -75 -106 -107 -24 -16 -49 -40 -54 -54 -6
-15 -15 -23 -23 -19 -9 3 -45 -33 -97 -95 -100 -119 -114 -143 -155 -261 -14
-40 -14 -46 0 -56 13 -9 13 -17 4 -40 -14 -38 -13 -218 2 -278 6 -26 18 -50
25 -53 8 -3 14 -14 14 -24 0 -10 6 -19 13 -19 28 0 29 -452 1 -600 -17 -90
-17 -87 -3 -73 14 14 49 150 49 193 0 50 11 110 20 110 4 0 10 -9 13 -21 3
-11 11 -19 19 -18 7 1 25 -3 40 -9 24 -10 26 -15 19 -34 -6 -16 -4 -27 5 -36
18 -17 35 -15 28 3 -9 22 23 19 53 -5 14 -11 32 -20 39 -20 22 0 16 -31 -6
-37 -11 -3 -20 -10 -20 -16 0 -14 -92 -102 -102 -99 -5 1 -8 -7 -8 -18 0 -19
-14 -25 -52 -22 -10 1 -18 -5 -18 -13 0 -8 -7 -15 -15 -15 -8 0 -15 -6 -15
-12 0 -7 -14 -33 -31 -58 -17 -25 -33 -57 -36 -72 -3 -15 -14 -35 -24 -44 -11
-9 -19 -26 -19 -36 0 -10 -7 -30 -16 -43 -9 -14 -12 -25 -6 -25 6 0 4 -15 -4
-37 -14 -42 -19 -163 -6 -163 17 0 21 13 11 32 -8 14 -7 24 3 35 10 12 10 17
1 20 -13 5 9 68 33 93 13 13 15 12 20 -8 4 -12 13 -22 20 -22 17 0 18 12 3 27
-17 17 -3 43 23 44 13 0 17 3 10 6 -10 4 -10 8 -2 18 6 8 18 11 26 8 8 -3 14
1 14 11 0 10 11 19 29 22 16 4 40 17 52 30 25 27 49 18 49 -18 0 -16 -5 -19
-25 -16 -14 3 -28 1 -31 -4 -6 -10 35 -47 54 -48 7 0 15 -6 18 -14 8 -20 82
-19 93 2 7 12 10 8 16 -16 3 -18 15 -36 25 -42 23 -12 31 -56 14 -71 -8 -6
-14 -17 -14 -24 0 -6 -27 -20 -60 -30 -40 -12 -59 -23 -56 -31 3 -7 -1 -18 -9
-24 -7 -6 -11 -20 -8 -31 4 -12 -3 -29 -16 -43 -22 -23 -20 -39 4 -30 9 4 12
-1 8 -14 -2 -11 0 -23 6 -26 7 -4 0 -18 -18 -35 -16 -16 -41 -56 -57 -90 -22
-48 -32 -60 -46 -55 -10 3 -18 1 -18 -5 0 -6 11 -11 25 -11 23 0 25 -2 14 -21
-10 -19 -7 -25 22 -50 25 -21 34 -37 34 -59 0 -20 -4 -29 -12 -26 -7 3 -15 1
-18 -4 -4 -6 -15 -10 -26 -10 -12 0 -19 -5 -16 -12 2 -7 11 -11 18 -9 8 2 40
7 72 11 61 6 89 -5 40 -16 -61 -13 -63 -15 -63 -47 1 -18 7 -43 15 -57 20 -35
18 -57 -5 -77 -11 -10 -20 -24 -19 -33 0 -10 2 -11 6 -2 2 6 9 12 15 12 6 0 8
-7 5 -15 -4 -8 0 -27 8 -42 17 -32 20 -109 5 -118 -5 -3 -10 -1 -10 4 0 6 -4
11 -9 11 -13 0 -24 -54 -12 -58 6 -2 11 -10 11 -17 0 -16 25 -26 45 -19 11 4
15 0 15 -16 0 -18 -3 -20 -14 -11 -11 9 -13 0 -13 -55 0 -63 1 -65 14 -40 7
14 16 26 19 26 3 0 2 -5 -1 -10 -4 -6 -2 -16 4 -23 5 -7 8 -25 7 -40 -2 -15 1
-30 5 -33 12 -7 -1 -57 -18 -67 -7 -4 -13 -15 -13 -22 0 -24 -14 -17 -32 13
-11 18 -14 32 -8 38 6 6 5 15 0 24 -6 9 -10 10 -10 3 0 -7 -10 -17 -22 -24
-18 -9 -20 -9 -15 4 3 9 -1 18 -9 21 -8 3 -14 14 -14 24 0 10 -3 22 -7 26 -4
3 -8 12 -9 19 -1 7 -12 39 -24 72 -12 33 -26 78 -31 100 -6 22 -16 43 -24 47
-7 5 -11 16 -8 27 3 12 -4 25 -19 35 -20 15 -21 18 -7 29 10 8 13 20 8 37 -4
14 -7 46 -8 73 -1 26 -5 47 -10 47 -5 0 -12 15 -15 34 -4 18 -16 44 -28 57
-17 20 -20 20 -14 5 8 -22 22 -84 31 -136 3 -19 11 -40 17 -47 8 -10 7 -13 -4
-13 -8 0 -19 19 -26 47 -10 34 -16 43 -24 35 -8 -8 -8 -37 0 -109 6 -54 14
-127 18 -163 9 -90 37 -174 102 -310 30 -63 63 -142 73 -175 61 -211 176 -466
265 -585 64 -86 82 -124 77 -155 -3 -15 -1 -25 6 -25 6 0 11 -11 11 -24 0 -14
4 -28 10 -31 5 -3 16 -27 24 -53 28 -92 107 -316 115 -327 4 -5 18 -39 31 -75
29 -79 59 -132 71 -125 8 6 129 -167 180 -255 14 -25 31 -44 37 -43 7 2 12 -4
12 -13 0 -8 4 -13 9 -10 5 3 24 -8 42 -26 61 -57 153 -128 166 -128 7 0 13 7
13 15 0 8 -5 15 -12 15 -6 0 -3 9 7 20 11 12 31 20 50 20 43 0 126 32 310 120
446 213 572 284 905 514 127 88 290 210 290 218 0 7 -159 -96 -341 -220 -96
-66 -176 -100 -205 -87 -17 8 -15 9 9 13 15 2 27 7 27 12 0 4 7 11 16 14 8 3
12 2 9 -4 -3 -6 -2 -10 3 -10 17 0 21 12 9 31 -10 16 -8 21 9 34 15 10 20 23
18 41 -3 33 13 58 41 62 26 4 54 41 55 70 0 24 15 30 23 10 4 -10 6 -10 6 0 1
6 7 12 14 12 8 0 22 9 32 20 10 11 24 20 31 20 7 0 15 9 19 19 3 11 22 25 43
32 20 6 43 16 50 22 6 5 12 6 12 3 0 -4 10 0 22 8 12 9 33 16 46 16 18 0 22 4
18 18 -5 13 1 22 19 30 14 7 31 12 36 12 20 0 48 44 43 67 -7 27 20 43 71 43
22 0 38 6 41 15 4 8 15 15 25 15 10 0 19 3 19 8 0 16 59 74 69 68 15 -10 13 5
-4 28 -13 18 -13 22 6 42 18 19 26 21 42 13 12 -7 17 -7 13 -1 -3 6 -3 18 0
27 5 13 15 16 40 12 40 -7 49 1 28 24 -17 19 -12 39 10 39 8 0 20 7 27 17 13
15 12 15 -9 4 -12 -6 -27 -9 -32 -6 -13 8 -13 32 0 40 6 3 7 -1 4 -9 -7 -19 0
-20 25 -4 18 11 18 13 3 25 -14 10 -15 13 -2 13 8 1 31 21 50 45 19 24 43 44
53 44 10 1 17 9 17 21 0 35 17 22 41 -33 31 -70 37 -198 14 -305 -36 -168 -50
-213 -112 -367 -75 -187 -64 -162 -147 -341 -36 -78 -66 -145 -66 -148 0 -9
-34 -85 -79 -176 -21 -42 -41 -88 -45 -104 -4 -15 -17 -44 -30 -64 -64 -103
-104 -197 -99 -232 0 -3 3 -18 7 -33 4 -17 3 -26 -3 -23 -5 3 -9 -4 -9 -17 0
-26 -18 -103 -31 -132 -5 -11 -23 -63 -40 -115 -50 -157 -72 -215 -82 -218 -5
-2 -9 -12 -9 -23 0 -10 -16 -53 -35 -95 -37 -80 -39 -103 -6 -63 20 24 20 24
14 2 l-5 -23 1336 0 1336 0 0 688 0 688 -45 12 c-34 9 -48 19 -61 44 -9 18
-22 36 -28 40 -8 5 -7 8 2 8 7 0 12 12 12 28 0 30 31 64 85 93 39 21 46 49 12
49 -37 0 -105 55 -127 103 -15 31 -26 99 -41 252 -30 287 -30 280 10 345 30
48 33 61 32 122 -1 78 -16 113 -63 153 -32 27 -33 27 -133 20 -55 -4 -174 -8
-265 -9 -91 -1 -239 -7 -330 -14 -91 -7 -208 -15 -260 -17 -237 -10 -355 -23
-404 -45 -34 -14 -67 -20 -104 -19 -66 3 -75 -7 -66 -81 5 -46 3 -53 -8 -42
-9 9 -13 39 -13 91 0 93 -15 123 -57 114 -16 -3 -28 -12 -28 -19 0 -8 -4 -14
-8 -14 -5 0 -15 -12 -22 -27 -8 -19 -14 -23 -18 -14 -2 7 2 17 9 22 10 6 14
30 14 84 0 42 2 68 6 58 3 -10 9 32 13 92 4 74 3 121 -5 143 -11 33 -7 47 14
47 7 0 13 15 15 33 2 18 10 36 18 39 10 4 11 9 5 17 -6 7 -10 21 -10 31 0 11
0 99 0 195 -1 96 2 208 5 249 7 72 7 74 43 90 81 36 124 90 115 145 -11 65
-15 77 -32 94 -52 52 -75 94 -74 133 1 21 -2 39 -8 39 -12 0 -34 40 -26 47 3
3 12 1 20 -6 11 -9 15 -6 19 16 3 16 8 39 11 53 6 24 6 24 -3 3 -13 -28 -25
-30 -16 -4 5 16 2 18 -16 14 -17 -5 -20 -2 -17 13 4 22 47 32 58 14 4 -7 5 8
3 34 -4 32 1 67 16 114 17 56 28 73 63 100 23 18 48 32 55 32 7 0 13 9 13 20
0 11 7 20 15 20 9 0 15 9 15 21 0 17 3 19 13 11 9 -8 21 -7 41 3 20 11 38 12
60 7 30 -8 95 4 107 20 3 4 45 9 95 10 l89 3 1 -91 c1 -50 7 -100 13 -112 6
-11 11 -32 11 -46 0 -14 4 -26 9 -26 5 0 12 -12 15 -26 7 -28 -19 -64 -47 -64
-8 0 -22 -9 -32 -20 -10 -11 -24 -20 -31 -20 -7 0 -14 -5 -16 -12 -2 -6 -35
-15 -74 -19 -78 -9 -128 -30 -146 -62 -14 -25 -82 -217 -103 -292 -16 -57 -22
-131 -11 -142 4 -4 26 -12 49 -18 28 -7 43 -16 45 -29 5 -23 -16 -38 -45 -31
-15 3 -30 -2 -43 -15 -18 -18 -20 -18 -21 -2 0 12 -3 10 -10 -7 -16 -40 7 -53
92 -53 41 1 104 6 140 11 37 6 91 10 120 10 30 -1 81 1 114 4 33 3 114 9 180
12 235 13 273 17 365 40 30 8 102 16 160 18 58 3 119 10 135 17 17 7 39 16 50
21 11 4 48 11 82 14 49 5 72 14 105 39 24 18 51 35 61 39 16 6 17 67 17 1088
l0 1082 -32 -7 c-18 -4 -34 -11 -36 -16 -2 -6 -15 -10 -29 -10 -33 0 -133 -29
-158 -46 -11 -8 -29 -14 -41 -14 -12 0 -39 -9 -61 -19 -71 -36 -164 -71 -185
-71 -12 0 -29 -6 -37 -14 -9 -7 -45 -24 -81 -37 -36 -12 -69 -26 -75 -29 -5
-4 -28 -13 -50 -20 -22 -7 -58 -21 -80 -30 -45 -20 -75 -32 -90 -35 -5 -2 -30
-14 -55 -28 -73 -41 -187 -96 -215 -103 -15 -4 -29 -13 -32 -20 -3 -8 -13 -14
-23 -14 -10 0 -20 -5 -22 -12 -5 -15 -105 -47 -129 -41 -11 3 -22 16 -25 29
-3 13 -10 22 -15 19 -15 -10 -26 30 -32 115 -3 47 -12 105 -20 130 -17 50 -56
182 -83 275 -10 33 -21 65 -26 71 -4 6 -24 73 -43 149 -36 142 -42 156 -112
248 -41 54 -54 87 -34 87 18 0 -11 61 -33 70 -12 4 -36 20 -54 35 -17 14 -36
24 -42 20 -6 -3 -17 1 -26 9 -8 9 -22 16 -29 16 -8 0 -12 6 -9 14 3 7 -7 21
-21 30 -15 10 -24 20 -21 23 3 3 17 -2 32 -11 48 -32 38 -6 -20 53 -32 33 -75
68 -95 78 -20 10 -59 39 -87 64 -28 26 -73 58 -100 72 -27 14 -73 41 -102 60
-28 20 -89 54 -135 77 -45 23 -102 53 -126 67 -24 14 -96 43 -160 65 -99 33
-121 44 -148 76 -18 20 -32 32 -33 26 0 -6 -19 -9 -47 -8 -46 3 -111 4 -143 3
-23 -1 -61 9 -74 20 -14 12 -118 31 -167 31 -21 0 -41 5 -44 10 -3 6 -22 10
-41 10 -19 0 -34 5 -34 10 0 13 -58 12 -90 -2z m27 -64 c-3 -3 -12 -4 -19 -1
-8 3 -5 6 6 6 11 1 17 -2 13 -5z m-42 -14 c-3 -5 -18 -10 -33 -10 -21 0 -24 2
-12 10 20 13 53 13 45 0z m-240 -10 c3 -5 -4 -11 -17 -14 -67 -14 -89 -15 -83
-6 3 6 16 10 28 10 12 0 29 5 37 10 19 12 27 12 35 0z m448 -17 c-7 -2 -21 -2
-30 0 -10 3 -4 5 12 5 17 0 24 -2 18 -5z m-734 -47 c-34 -31 -144 -116 -151
-116 -28 0 77 97 119 110 35 10 37 11 32 6z m167 -11 c-26 -19 -42 -19 -26 0
7 8 20 15 29 15 13 -1 13 -3 -3 -15z m-81 -35 c-3 -5 -14 -10 -23 -10 -15 0
-15 2 -2 10 20 13 33 13 25 0z m-80 -20 c-3 -5 -11 -10 -16 -10 -6 0 -7 5 -4
10 3 6 11 10 16 10 6 0 7 -4 4 -10z m35 -28 c0 -9 -44 -32 -58 -32 -10 1 38
40 49 40 5 0 9 -4 9 -8z m-100 -36 c0 -2 -8 -10 -17 -17 -16 -13 -17 -12 -4 4
13 16 21 21 21 13z m-183 -144 c-10 -10 -17 -24 -17 -30 0 -7 -4 -12 -10 -12
-17 0 -11 22 12 47 25 27 39 22 15 -5z m1283 -342 c0 -5 -4 -10 -10 -10 -5 0
-10 5 -10 10 0 6 5 10 10 10 6 0 10 -4 10 -10z m297 -29 c-4 -17 2 -18 84 -16
58 1 93 -3 99 -10 5 -6 23 -10 40 -7 16 2 30 0 30 -6 0 -13 59 -34 72 -26 5 3
28 -7 51 -23 23 -15 47 -28 52 -28 22 -1 75 -31 75 -42 0 -6 20 -21 44 -33 38
-19 146 -127 146 -145 0 -4 16 -25 35 -48 19 -22 35 -48 35 -57 0 -9 13 -28
29 -43 20 -17 31 -39 36 -69 6 -44 24 -88 38 -99 5 -4 10 -31 12 -60 2 -30 12
-80 22 -111 16 -46 17 -58 6 -62 -10 -4 -10 -12 -2 -33 5 -15 12 -45 15 -68 3
-22 6 -47 7 -55 2 -8 10 -29 20 -47 18 -34 25 -91 7 -63 -5 8 -12 11 -16 8 -4
-4 1 -20 11 -35 11 -17 19 -50 21 -84 1 -31 7 -66 13 -77 6 -12 11 -31 11 -43
0 -18 -2 -19 -15 -9 -13 11 -15 6 -16 -36 -1 -27 0 -61 1 -76 1 -16 -3 -28 -9
-28 -7 0 -11 24 -12 58 0 31 -6 73 -13 92 -11 31 -12 25 -12 -65 1 -55 5 -103
10 -107 6 -4 4 -14 -5 -24 -11 -14 -11 -16 0 -10 11 7 13 -1 8 -45 -25 -223
-30 -336 -18 -456 7 -68 19 -149 27 -181 8 -31 16 -80 18 -108 2 -29 8 -59 12
-67 14 -25 -4 -387 -21 -424 -10 -22 -11 -33 -4 -33 7 0 9 -10 5 -25 -4 -14
-2 -25 4 -25 5 0 10 -5 10 -11 0 -5 -4 -8 -9 -5 -12 8 -74 -73 -67 -89 3 -8
-2 -22 -11 -30 -8 -9 -13 -19 -10 -22 4 -3 1 -15 -5 -27 -7 -11 -11 -31 -9
-43 1 -13 -3 -23 -9 -23 -7 0 -9 8 -5 20 5 14 2 20 -9 20 -10 0 -16 -9 -16
-21 0 -11 -6 -27 -14 -35 -10 -9 -13 -26 -9 -49 5 -30 3 -34 -11 -29 -13 5
-16 0 -16 -25 0 -21 -5 -31 -15 -31 -13 0 -15 -7 -9 -35 7 -40 -7 -47 -24 -12
-11 20 -12 19 -6 -10 3 -17 0 -34 -5 -38 -6 -3 -11 -15 -11 -26 0 -11 -6 -27
-14 -34 -9 -9 -12 -31 -10 -67 2 -32 1 -44 -4 -30 -7 23 -7 23 -24 2 -12 -14
-16 -29 -12 -50 5 -20 3 -30 -6 -30 -10 0 -10 -3 0 -15 10 -12 10 -15 -4 -15
-9 0 -16 -5 -16 -11 0 -5 5 -7 11 -3 8 4 9 0 4 -15 -8 -27 11 -28 27 -1 17 27
28 25 28 -5 0 -31 -26 -95 -38 -95 -15 0 -12 -64 5 -82 9 -10 12 -25 8 -37 -9
-28 -25 -27 -25 2 0 13 -5 28 -11 34 -6 6 -13 37 -15 69 -3 32 -8 62 -12 66
-4 4 -5 -13 -2 -40 4 -35 1 -50 -10 -59 -13 -10 -12 -15 9 -37 14 -14 21 -29
16 -33 -4 -5 -10 -2 -12 5 -4 10 -8 10 -19 1 -12 -10 -18 -8 -30 10 -9 12 -19
19 -24 16 -4 -3 -11 1 -13 7 -10 25 -7 -31 3 -58 8 -20 7 -41 -1 -76 -13 -49
-29 -64 -29 -27 0 17 -3 19 -14 10 -8 -7 -17 -23 -20 -36 -4 -16 -11 -22 -21
-19 -10 4 -13 -1 -12 -22 2 -31 -20 -44 -30 -17 -3 10 -18 30 -33 44 -51 50
-100 122 -70 104 13 -8 13 11 -1 37 -7 13 -7 24 -1 30 6 6 21 -5 42 -31 17
-23 35 -39 40 -36 5 3 11 -1 13 -7 3 -7 6 -3 6 10 1 13 -3 21 -7 18 -15 -9
-31 9 -21 24 8 13 10 13 18 0 6 -8 13 -11 17 -7 4 4 2 13 -4 19 -7 7 -12 44
-12 92 0 43 -3 76 -7 73 -3 -4 -6 -20 -5 -37 1 -33 -14 -31 -28 4 -7 18 -9 16
-9 -15 -1 -44 -22 -75 -45 -66 -20 8 -56 -45 -56 -80 0 -14 -6 -23 -15 -23 -8
0 -15 8 -15 17 0 11 -10 4 -26 -21 -24 -35 -25 -40 -10 -48 20 -11 21 -32 2
-47 -8 -7 -12 -20 -9 -30 3 -10 0 -21 -5 -25 -5 -3 -12 11 -16 32 -3 21 -13
46 -21 57 -15 19 -16 19 -14 -10 2 -49 -1 -52 -19 -16 -20 41 -42 52 -42 22 0
-12 -6 -21 -15 -21 -8 0 -15 -4 -15 -10 0 -5 -4 -10 -10 -10 -5 0 -13 18 -16
39 -5 31 -12 41 -31 46 -24 6 -25 9 -20 61 4 34 2 54 -5 54 -6 0 -8 9 -5 20 3
11 1 20 -4 20 -5 0 -9 9 -9 20 0 18 3 19 21 10 11 -7 23 -9 27 -6 3 3 0 6 -6
6 -7 0 -12 9 -12 19 0 11 -5 23 -10 26 -6 4 -8 11 -4 16 3 6 -6 28 -20 50 -15
22 -24 43 -22 48 3 4 -3 17 -13 28 -26 28 -43 62 -36 73 3 6 -1 7 -9 4 -11 -4
-16 0 -16 10 0 9 -9 34 -20 56 -25 50 -25 49 8 45 15 -2 30 -4 34 -4 4 -1 16
-11 28 -23 11 -12 20 -18 20 -13 0 4 8 -2 19 -13 10 -12 26 -22 35 -22 9 0 19
-6 22 -14 4 -11 10 -11 29 -2 28 13 40 45 36 103 -2 31 2 44 16 52 14 8 15 13
5 19 -8 5 -10 16 -6 27 7 18 8 18 14 -1 8 -21 35 93 43 179 5 48 0 56 -21 35
-9 -9 -12 -8 -12 6 0 10 9 20 19 23 24 6 16 33 -9 33 -26 0 -31 36 -13 88 11
35 12 51 4 64 -9 14 -8 16 7 11 9 -3 23 -10 30 -16 18 -14 15 8 -3 23 -9 8
-37 12 -65 11 -29 -1 -50 3 -50 9 0 5 8 10 19 10 23 0 47 25 31 35 -5 3 -15 3
-21 0 -13 -8 -38 23 -39 48 0 17 -2 17 -15 3 -20 -20 -145 -19 -145 1 0 16
-12 17 -27 2 -13 -13 -36 -3 -27 12 3 5 9 7 14 4 5 -3 12 0 16 6 4 8 3 9 -5 5
-6 -4 -14 0 -17 8 -8 21 -21 20 -27 -1 -3 -10 -5 -1 -6 20 -1 23 3 36 9 32 6
-3 10 -2 10 4 0 15 -60 2 -92 -21 -18 -12 -36 -16 -51 -13 -14 4 -28 2 -31 -4
-9 -14 -63 -14 -71 -1 -4 6 -11 8 -16 5 -5 -4 -9 -3 -9 2 0 13 -58 35 -71 27
-8 -5 -9 -37 -3 -113 15 -205 7 -248 -51 -282 -40 -24 -41 -38 -4 -56 13 -7
28 -18 34 -26 5 -8 28 -20 50 -28 49 -17 85 -38 85 -51 0 -15 29 -40 39 -33 6
3 13 -1 18 -9 4 -8 11 -15 16 -15 16 -2 6 -16 -13 -19 -11 -2 -26 -12 -33 -23
-6 -10 -19 -19 -29 -19 -9 0 -20 -5 -24 -12 -5 -8 -16 -1 -35 21 -15 18 -30
28 -33 23 -7 -12 13 -62 26 -62 4 0 8 -4 8 -10 0 -6 -9 -6 -24 0 -13 5 -27 6
-30 3 -3 -4 -6 -1 -6 5 0 5 -3 19 -6 29 -5 15 -4 15 5 3 9 -13 11 -13 11 3 0
10 -8 17 -20 17 -11 0 -20 -4 -20 -10 0 -5 -4 -10 -10 -10 -5 0 -10 18 -10 40
0 38 -2 40 -30 40 -17 0 -41 7 -54 15 -13 9 -28 15 -32 14 -22 -4 -33 2 -39
21 -3 11 -19 27 -36 37 -16 9 -29 23 -29 30 0 18 -20 27 -33 14 -7 -7 -6 -16
6 -29 19 -21 22 -32 7 -32 -5 0 -10 6 -10 14 0 9 -7 12 -20 9 -16 -4 -23 2
-31 26 -7 21 -18 31 -31 31 -14 0 -18 5 -14 15 3 8 1 15 -4 15 -6 0 -10 6 -10
13 0 7 -24 24 -54 37 -49 21 -54 27 -55 54 0 17 -1 53 -2 80 -2 37 2 51 14 58
15 8 16 11 2 24 -15 15 -19 33 -16 66 2 11 -5 18 -14 18 -10 0 -13 -5 -9 -12
4 -7 3 -8 -4 -4 -6 4 -8 14 -5 23 5 14 1 15 -25 10 -24 -5 -32 -3 -32 8 0 8 5
15 10 15 6 0 10 7 10 15 0 8 -4 15 -10 15 -5 0 -7 7 -4 15 8 19 -1 19 -32 -2
l-26 -17 23 -17 23 -17 -32 4 c-30 3 -31 3 -25 -32 5 -28 1 -40 -18 -60 -13
-13 -30 -24 -39 -23 -22 2 -60 -12 -60 -22 0 -8 -31 -46 -72 -87 -13 -12 -32
-21 -43 -20 -17 3 -20 10 -19 59 1 50 28 118 42 105 8 -9 34 23 27 34 -3 5 -2
10 4 10 5 0 13 -5 16 -10 8 -13 42 29 73 89 26 52 27 62 7 55 -10 -4 -13 -2
-10 8 9 24 -29 58 -64 58 -45 0 -76 17 -61 35 8 10 8 24 0 54 -11 41 -24 53
-33 29 -2 -7 -7 4 -11 25 -4 20 -4 42 -1 47 3 6 -6 15 -20 20 -35 13 -27 35
13 35 28 0 30 2 25 27 -4 20 0 29 16 37 17 10 21 9 21 -4 0 -12 4 -11 21 6 11
11 18 27 15 35 -6 16 7 11 36 -13 15 -13 19 -11 44 16 15 17 31 31 37 31 12 0
46 42 47 57 0 6 11 25 26 42 14 16 25 31 24 33 -1 2 2 11 6 21 3 10 4 44 2 77
-3 44 -1 60 8 60 21 0 27 38 10 62 -20 28 -20 57 -1 64 8 4 15 12 15 20 0 8 5
14 10 14 6 0 10 -5 10 -12 0 -20 13 1 15 25 1 17 7 21 26 19 13 -2 29 -11 36
-20 12 -16 14 -16 24 1 5 9 17 17 26 17 12 0 14 7 10 29 -4 21 -1 34 14 46 10
10 17 20 15 22 -7 7 44 53 59 53 8 0 17 5 20 10 4 7 16 3 33 -8 35 -24 116
-46 143 -39 12 3 32 1 43 -6 28 -15 103 -20 111 -7 7 11 102 12 150 1 28 -6
29 -7 10 -19 -11 -6 -16 -12 -11 -12 23 0 -32 -29 -57 -30 -27 0 -66 -17 -78
-33 -3 -5 -10 -7 -14 -5 -5 1 -19 -15 -31 -37 -19 -33 -23 -51 -20 -107 2 -43
0 -68 -7 -71 -6 -2 3 -12 21 -22 18 -11 32 -27 32 -36 0 -35 49 -146 81 -183
61 -70 111 -116 125 -116 8 0 14 -7 14 -15 0 -8 8 -14 18 -13 43 3 54 -2 49
-23 -4 -13 0 -22 11 -26 26 -10 53 -45 48 -60 -3 -8 1 -16 9 -19 8 -4 15 -14
15 -24 0 -10 7 -23 15 -30 17 -14 20 -40 5 -40 -5 0 -10 -9 -10 -20 0 -11 7
-20 15 -20 8 0 15 9 15 20 0 11 6 20 14 20 12 0 13 7 5 32 -5 18 -9 34 -9 36
0 2 12 2 28 0 15 -2 26 -8 25 -15 -3 -13 54 -73 68 -73 5 0 9 -9 9 -19 0 -11
5 -23 10 -26 6 -3 10 -1 10 5 0 6 5 8 11 5 6 -4 8 -13 5 -21 -3 -7 -1 -16 5
-20 5 -3 7 -14 4 -24 -5 -15 1 -20 30 -26 19 -3 47 -15 61 -27 l26 -20 -4 24
c-2 17 -11 25 -36 30 -44 9 -57 22 -37 39 13 10 15 9 15 -9 0 -11 5 -21 11
-21 6 0 9 5 7 12 -3 7 1 36 8 65 12 52 12 54 -12 69 -22 15 -26 15 -51 -2 -33
-21 -39 -20 -35 8 2 12 0 18 -7 14 -7 -5 -11 3 -11 19 0 16 -7 28 -17 31 -10
3 -42 17 -72 32 -43 21 -60 37 -82 77 -32 57 -36 73 -14 55 12 -10 15 -9 15 4
0 23 42 37 95 30 45 -5 45 -5 35 20 -10 28 -1 40 24 30 11 -4 16 0 16 13 0 23
32 63 50 63 6 0 23 9 37 20 14 11 32 20 39 20 8 0 14 5 14 10 0 6 7 10 15 10
8 0 24 9 35 20 11 11 30 22 43 25 34 9 107 -12 107 -30 0 -8 10 -17 23 -20 27
-7 100 22 91 36 -3 6 2 16 11 23 16 12 13 16 -29 52 -61 51 -166 112 -241 138
-76 28 -85 33 -78 51 3 9 -1 15 -11 15 -9 0 -16 8 -16 19 0 21 32 37 63 32 13
-2 17 5 17 27 0 28 2 29 48 31 85 3 117 6 122 11 11 12 91 43 96 37 4 -3 19 0
34 8 15 8 31 10 36 6 10 -10 94 -22 94 -14 0 3 -8 17 -18 31 -10 15 -24 38
-31 52 -13 26 -112 110 -129 110 -6 0 -12 7 -16 15 -3 8 -13 14 -23 13 -34 -3
-64 2 -59 10 2 4 -12 6 -32 6 -20 -1 -49 4 -63 12 -51 26 -349 39 -357 15 -5
-16 -68 -13 -82 4 -7 8 -12 26 -12 40 0 14 -1 25 -2 25 -1 0 -16 -4 -34 -9
-25 -8 -32 -7 -32 5 0 18 -14 18 -29 0 -8 -9 -25 -12 -55 -9 -37 5 -46 2 -55
-16 -10 -18 -20 -20 -79 -20 -37 0 -106 0 -155 -2 -71 -2 -91 1 -107 16 -10 9
-18 22 -17 28 1 6 -8 15 -19 22 -12 6 -29 17 -37 24 -12 9 -21 10 -37 1 -16
-9 -21 -8 -26 5 -12 31 -27 15 -21 -24 4 -32 2 -41 -12 -44 -9 -2 -23 3 -32
10 -10 8 -31 15 -48 15 -19 1 -31 6 -31 15 0 7 -11 19 -25 25 -14 6 -25 18
-25 25 0 8 -5 11 -10 8 -6 -4 -19 13 -30 37 -18 42 -19 42 -28 17 -8 -21 -17
-25 -53 -26 -41 -2 -42 -1 -25 13 24 17 14 29 -30 38 -23 5 -37 1 -58 -15 -23
-18 -30 -19 -36 -8 -7 11 -10 9 -16 -6 -14 -36 -54 -62 -54 -35 0 6 -7 10 -15
10 -8 0 -15 -4 -15 -10 0 -5 5 -10 12 -10 6 0 9 -2 6 -5 -8 -9 -68 7 -62 16 3
5 -6 4 -20 -2 -14 -7 -23 -16 -20 -20 3 -5 0 -9 -5 -9 -6 0 -11 5 -11 11 0 10
-48 7 -105 -7 -12 -3 -15 -2 -8 3 21 15 -166 13 -240 -2 -147 -32 -187 -47
-238 -93 -27 -24 -49 -51 -49 -60 0 -8 -2 -13 -5 -10 -8 7 23 307 40 383 44
203 120 383 240 566 53 80 275 309 300 309 8 0 15 5 15 10 0 6 5 10 11 10 6 0
21 8 34 18 20 16 32 17 77 10 60 -9 60 -9 108 -3 120 15 141 17 157 9 23 -10
52 -15 83 -16 49 0 165 15 175 23 17 13 95 5 105 -10 7 -12 11 -12 24 -2 8 7
45 13 83 15 38 1 74 5 80 9 13 8 225 28 281 27 56 -1 66 -1 119 5 31 4 54 2
58 -5 9 -15 61 -12 75 5 7 8 18 15 25 15 7 0 15 -7 19 -15 7 -20 51 -19 111 4
28 11 52 20 54 20 2 1 1 -7 -2 -18z m-2347 -680 c-5 -11 -15 -23 -22 -27 -7
-5 -8 -2 -3 7 21 37 44 55 25 20z m990 -471 c-14 -10 -26 -17 -28 -15 -7 7 23
34 38 34 10 1 6 -6 -10 -19z m117 -77 c-3 -10 -5 -4 -5 12 0 17 2 24 5 18 2
-7 2 -21 0 -30z m-967 -97 c0 -3 -4 -8 -10 -11 -5 -3 -10 -1 -10 4 0 6 5 11
10 11 6 0 10 -2 10 -4z m3230 -6 c0 -5 -2 -10 -4 -10 -3 0 -8 5 -11 10 -3 6
-1 10 4 10 6 0 11 -4 11 -10z m100 -71 c0 -6 -4 -7 -10 -4 -5 3 -10 11 -10 16
0 6 5 7 10 4 6 -3 10 -11 10 -16z m380 -5 c91 0 130 -5 130 -17 0 -9 -9 -12
-28 -9 -25 3 -29 1 -28 -19 1 -20 -6 -24 -44 -31 -25 -4 -50 -15 -57 -24 -10
-14 -12 -13 -18 6 -6 20 -8 20 -25 5 -16 -15 -18 -14 -23 7 -4 14 0 30 12 43
10 11 22 31 26 44 6 21 9 22 19 10 6 -9 22 -15 36 -15z m-423 -406 c-3 -8 -6
-5 -6 6 -1 11 2 17 5 13 3 -3 4 -12 1 -19z m-952 -39 c74 -25 150 -81 122 -92
-10 -4 -38 9 -74 33 -31 22 -69 42 -84 45 -28 6 -61 35 -40 35 6 0 40 -10 76
-21z m-1989 -17 c12 -8 29 -82 19 -82 -25 0 -45 24 -45 55 0 35 6 41 26 27z
m-56 -32 c0 -13 -5 -18 -15 -14 -8 4 -15 12 -15 20 0 8 7 14 15 14 8 0 15 -9
15 -20z m2022 -40 c12 -11 28 -20 35 -20 16 0 17 -21 1 -42 -15 -19 -138 -69
-150 -62 -4 3 3 20 17 38 19 24 22 35 13 44 -9 9 -9 18 0 37 14 31 54 34 84 5z
m183 -10 c3 -5 1 -10 -4 -10 -6 0 -11 5 -11 10 0 6 2 10 4 10 3 0 8 -4 11 -10z
m-560 -360 c3 -5 1 -10 -4 -10 -6 0 -11 5 -11 10 0 6 2 10 4 10 3 0 8 -4 11
-10z m215 -230 c0 -5 -5 -10 -11 -10 -5 0 -7 5 -4 10 3 6 8 10 11 10 2 0 4 -4
4 -10z m-1640 -80 c0 -5 -4 -10 -10 -10 -5 0 -10 5 -10 10 0 6 5 10 10 10 6 0
10 -4 10 -10z m2770 -169 c0 -24 -8 -48 -20 -62 l-19 -24 -1 22 c0 12 5 25 10
28 6 3 10 24 10 46 0 24 4 38 10 34 6 -3 10 -23 10 -44z m-2283 3 c-3 -3 -12
-4 -19 -1 -8 3 -5 6 6 6 11 1 17 -2 13 -5z m43 -40 c0 -8 -4 -12 -10 -9 -5 3
-10 10 -10 16 0 5 5 9 10 9 6 0 10 -7 10 -16z m1167 -50 c-3 -3 -12 -4 -19 -1
-8 3 -5 6 6 6 11 1 17 -2 13 -5z m1446 -71 c-7 -2 -19 -2 -25 0 -7 3 -2 5 12
5 14 0 19 -2 13 -5z m-493 -78 c0 -13 -6 -28 -14 -32 -8 -4 -16 -17 -19 -28
-3 -11 -3 0 0 25 3 25 7 48 10 53 9 16 23 6 23 -18z m-2120 -19 c0 -3 -4 -8
-10 -11 -5 -3 -10 -1 -10 4 0 6 5 11 10 11 6 0 10 -2 10 -4z m2083 -106 c3
-11 1 -23 -4 -26 -5 -3 -9 6 -9 20 0 31 6 34 13 6z m-79 -119 c-6 -6 -24 19
-24 34 1 6 7 1 15 -9 8 -11 12 -22 9 -25z m63 -23 c-3 -8 -6 -5 -6 6 -1 11 2
17 5 13 3 -3 4 -12 1 -19z m-7 -36 c0 -4 -4 -12 -9 -17 -5 -6 -11 -21 -14 -35
-3 -19 -5 -16 -6 11 0 20 2 39 6 42 9 10 23 9 23 -1z m-1244 -34 c11 -17 12
-48 3 -53 -12 -8 -39 6 -39 21 0 8 -5 14 -11 14 -6 0 -9 -7 -5 -15 4 -12 2
-13 -14 -3 -19 12 -19 13 -1 20 10 3 22 11 26 17 8 15 32 14 41 -1z m1278 -30
c-4 -6 -10 -5 -15 3 -6 9 -9 -6 -8 -42 1 -30 -1 -62 -6 -69 -6 -10 -4 -12 8
-7 11 4 17 1 17 -8 0 -18 -20 -30 -21 -13 0 11 -2 11 -6 0 -4 -10 -9 -10 -23
3 -16 15 -18 13 -30 -32 -18 -66 -19 -145 -2 -138 7 2 12 -4 12 -15 0 -28 -19
-72 -28 -66 -8 5 -16 105 -15 173 1 14 -3 20 -10 16 -7 -4 -8 0 -2 13 4 10 15
39 23 64 8 25 27 61 42 80 14 19 29 43 33 54 6 15 10 16 22 6 8 -7 12 -17 9
-22z m-1344 -50 c0 -17 -3 -18 -15 -8 -8 7 -15 21 -15 32 0 17 3 18 15 8 8 -7
15 -21 15 -32z m-36 6 c28 -39 5 -46 -27 -8 -25 29 -26 34 -10 34 10 0 26 -12
37 -26z m151 6 c3 -5 -1 -10 -9 -10 -9 0 -16 5 -16 10 0 6 4 10 9 10 6 0 13
-4 16 -10z m1282 -92 c-3 -8 -6 -5 -6 6 -1 11 2 17 5 13 3 -3 4 -12 1 -19z
m-53 -55 c-4 -16 -13 -32 -21 -36 -7 -4 -13 -17 -13 -27 0 -10 -4 -22 -10 -25
-17 -10 -11 22 12 70 24 50 42 60 32 18z m-2994 -3 c0 -5 -5 -10 -11 -10 -5 0
-7 5 -4 10 3 6 8 10 11 10 2 0 4 -4 4 -10z m1142 -24 c15 -3 30 -1 33 4 4 6
12 7 18 3 6 -4 34 -8 62 -8 27 -1 78 -6 113 -10 57 -7 62 -6 63 11 0 16 2 16
9 -3 10 -25 35 -31 43 -10 4 9 8 8 16 -3 7 -9 14 -11 19 -5 10 14 32 17 32 4
0 -5 5 -7 10 -4 6 4 18 1 26 -6 13 -10 13 -15 -1 -36 -13 -19 -14 -27 -4 -39
9 -11 5 -17 -26 -30 -43 -18 -131 -11 -180 14 -16 8 -38 19 -47 23 -10 5 -25
9 -35 9 -9 0 -24 7 -32 15 -9 8 -33 15 -53 17 -21 1 -40 8 -42 15 -3 7 -14 13
-25 13 -10 0 -22 8 -25 17 -5 12 -9 14 -18 5 -7 -7 -16 -12 -22 -12 -6 0 -5 5
1 11 6 6 9 19 6 28 -6 15 -5 15 13 0 10 -9 31 -19 46 -23z m1798 5 c0 -5 -7
-14 -15 -21 -16 -14 -18 -10 -9 14 6 17 24 22 24 7z m-2940 -42 c0 -5 -7 -9
-15 -9 -9 0 -12 6 -9 15 6 15 24 11 24 -6z m2994 -4 c-4 -8 -8 -15 -10 -15 -2
0 -4 7 -4 15 0 8 4 15 10 15 5 0 7 -7 4 -15z m-1 -67 c-2 -5 -8 -8 -14 -8 -11
0 -12 33 -2 44 8 8 23 -25 16 -36z m-196 -20 c-3 -8 -6 -5 -6 6 -1 11 2 17 5
13 3 -3 4 -12 1 -19z m-2777 3 c0 -21 -13 -41 -26 -41 -15 0 -17 10 -8 34 7
17 34 22 34 7z m2922 -23 c-8 -8 -9 -4 -5 13 4 13 8 18 11 10 2 -7 -1 -18 -6
-23z m42 -4 c8 -21 8 -21 -9 -21 -8 0 -15 9 -15 19 0 22 16 24 24 2z m-154
-69 c0 -40 -4 -55 -14 -55 -15 0 -27 -42 -29 -105 l-2 -40 39 0 c42 0 65 -24
24 -26 -12 -1 -26 -1 -30 0 -5 0 -8 -4 -8 -11 0 -6 -11 -2 -23 10 l-24 22 -11
-22 c-10 -22 -11 -21 -11 10 -1 18 3 31 8 28 5 -4 7 3 4 13 -5 21 8 70 37 136
10 22 21 52 24 68 10 43 16 32 16 -28z m103 20 c-8 -22 -22 -18 -16 5 3 11 9
17 14 15 4 -3 6 -12 2 -20z m-1538 5 c4 -6 11 -8 16 -4 5 3 23 -2 41 -10 17
-9 45 -16 62 -16 17 0 39 -7 49 -14 18 -14 44 -94 52 -160 3 -18 14 -38 30
-49 28 -21 32 -42 10 -51 -8 -3 -15 -10 -15 -15 0 -6 6 -8 14 -5 8 3 17 1 21
-5 12 -21 -6 -50 -35 -56 -17 -4 -30 -11 -30 -17 0 -10 -51 -4 -87 9 -12 5
-14 3 -8 -6 4 -8 2 -17 -6 -21 -14 -9 -20 -48 -8 -56 4 -2 10 0 14 6 10 17 25
11 25 -9 0 -11 5 -23 10 -26 16 -10 -29 -45 -57 -45 -19 0 -23 -4 -18 -19 3
-11 1 -22 -5 -26 -5 -3 -10 -14 -10 -24 0 -10 -11 -27 -25 -37 -19 -14 -25
-28 -25 -56 0 -46 -8 -47 -40 -8 -51 63 -55 66 -58 47 -3 -17 -32 -23 -45 -10
-11 10 -67 14 -67 4 0 -5 7 -14 15 -21 25 -21 17 -28 -21 -20 -47 11 -50 15
-33 47 7 16 15 31 17 36 2 4 -4 7 -13 7 -9 0 -14 -4 -10 -9 3 -5 1 -12 -5 -16
-5 -3 -10 -1 -10 4 0 6 -4 11 -10 11 -5 0 -10 -7 -10 -15 0 -8 -4 -15 -9 -15
-5 0 -11 -6 -14 -12 -2 -7 -2 -2 1 12 2 14 4 32 4 40 0 8 2 32 5 53 4 32 8 37
26 35 12 -2 28 -10 35 -18 11 -13 13 -10 9 16 -2 25 0 31 12 26 9 -3 12 -1 7
6 -3 6 -2 13 3 16 5 4 12 2 16 -4 12 -19 26 -11 15 9 -5 11 -10 22 -10 25 0 9
54 3 68 -7 7 -6 16 -7 20 -3 4 4 -2 14 -12 22 -11 7 -16 17 -13 21 4 4 12 2
19 -5 8 -8 17 -6 34 11 13 12 29 22 36 22 7 0 18 14 23 31 6 17 15 29 21 27 7
-2 11 6 10 21 0 14 -7 25 -16 25 -37 2 -50 5 -50 13 0 4 -8 8 -17 8 -14 0 -15
2 -5 9 18 11 -7 21 -53 21 -38 0 -89 20 -126 49 -15 11 -39 25 -54 31 -26 10
-26 12 -12 33 9 14 25 22 42 22 16 0 30 6 32 13 3 6 11 12 19 12 8 0 14 5 14
11 0 6 -9 8 -22 4 -23 -7 -23 -7 -3 12 11 10 36 26 55 34 19 9 46 21 60 27 32
14 97 15 105 2z m-902 -58 l-6 -23 -14 21 c-8 12 -12 28 -9 37 10 26 37 -6 29
-35z m2387 7 c0 -18 -18 -9 -23 12 -4 16 -3 18 9 8 8 -6 14 -15 14 -20z
m-2435 1 c3 -5 -1 -10 -9 -10 -9 0 -16 5 -16 10 0 6 4 10 9 10 6 0 13 -4 16
-10z m135 -10 c0 -5 -10 -10 -22 -10 -19 0 -20 2 -8 10 19 13 30 13 30 0z m60
-19 c0 -5 -11 -16 -25 -25 -24 -16 -25 -15 -25 2 0 10 3 22 7 25 9 10 43 8 43
-2z m2110 -13 c0 -6 -3 -8 -7 -5 -3 4 -12 2 -20 -4 -10 -9 -13 -8 -13 5 0 9 8
16 20 16 11 0 20 -5 20 -12z m240 2 c0 -5 -7 -7 -15 -4 -8 4 -15 8 -15 10 0 2
7 4 15 4 8 0 15 -4 15 -10z m-603 -35 c-8 -8 -16 -10 -22 -4 -6 7 -5 13 5 19
20 12 32 2 17 -15z m493 10 c0 -8 -4 -15 -10 -15 -5 0 -10 7 -10 15 0 8 5 15
10 15 6 0 10 -7 10 -15z m-1910 -35 c0 -5 -4 -10 -10 -10 -5 0 -10 5 -10 10 0
6 5 10 10 10 6 0 10 -4 10 -10z m1886 -15 c10 -24 1 -33 -23 -24 -15 5 -21 14
-17 24 8 19 33 20 40 0z m-236 -33 c0 -15 -2 -15 -10 -2 -13 20 -13 33 0 25 6
-3 10 -14 10 -23z m57 -24 c-3 -8 -6 -5 -6 6 -1 11 2 17 5 13 3 -3 4 -12 1
-19z m-67 -33 c0 -8 -4 -15 -10 -15 -5 0 -7 7 -4 15 4 8 8 15 10 15 2 0 4 -7
4 -15z m195 -35 c16 0 25 -46 12 -59 -16 -16 -40 -13 -34 3 3 8 -1 17 -9 20
-8 3 -14 15 -14 27 0 15 4 19 16 15 9 -3 21 -6 29 -6z m132 -22 c-3 -8 -6 -5
-6 6 -1 11 2 17 5 13 3 -3 4 -12 1 -19z m-802 -20 c21 -9 35 -28 21 -28 -16 0
-56 21 -56 30 0 13 3 13 35 -2z m550 -8 c3 -5 1 -10 -4 -10 -6 0 -11 5 -11 10
0 6 2 10 4 10 3 0 8 -4 11 -10z m-220 -70 c-3 -5 -10 -10 -16 -10 -5 0 -9 5
-9 10 0 6 7 10 16 10 8 0 12 -4 9 -10z m-55 -24 c0 -3 -4 -8 -10 -11 -5 -3
-10 -1 -10 4 0 6 5 11 10 11 6 0 10 -2 10 -4z m1783 -109 c25 -13 35 -23 29
-31 -5 -6 -12 -35 -14 -64 -4 -42 -2 -57 12 -70 9 -10 20 -32 24 -51 3 -19 14
-43 23 -53 9 -10 13 -18 9 -18 -3 0 3 -18 14 -40 15 -30 27 -40 44 -40 19 0
25 7 30 35 4 19 3 43 -3 52 -23 45 -5 153 26 153 7 0 13 7 13 15 0 8 9 23 21
34 12 11 18 24 15 29 -10 16 20 22 46 9 38 -18 99 -94 108 -132 4 -20 4 -35
-1 -35 -5 0 -9 -15 -9 -32 0 -18 -6 -53 -14 -78 -11 -37 -18 -46 -40 -48 -27
-3 -37 -22 -11 -22 8 0 15 -4 15 -10 0 -5 -5 -10 -10 -10 -7 0 -7 -6 -1 -18 7
-13 6 -23 -1 -30 -9 -9 -5 -12 18 -13 l29 -1 -32 -9 c-23 -7 -33 -16 -33 -29
0 -14 -7 -20 -21 -20 -12 0 -30 -11 -41 -25 -17 -22 -25 -24 -59 -19 -36 6
-39 5 -39 -16 0 -17 -5 -21 -19 -17 -10 2 -25 1 -32 -4 -10 -6 -7 -9 11 -9 38
0 11 -17 -37 -23 -33 -4 -43 -2 -43 9 0 20 -37 17 -49 -3 -9 -16 -12 -15 -10
3 0 6 -27 24 -61 40 -8 4 -19 13 -23 21 -4 7 -15 13 -22 13 -8 0 -15 5 -15 10
0 7 6 7 20 0 11 -6 20 -7 20 -2 0 15 -43 22 -57 10 -8 -7 -13 -7 -13 0 0 5
-11 9 -24 8 -13 0 -22 -5 -18 -10 3 -5 -1 -7 -9 -4 -8 3 -41 13 -74 23 -101
29 -190 82 -157 93 7 2 12 12 12 22 0 10 12 23 30 30 17 7 30 18 30 25 0 22
28 36 84 42 31 3 56 11 56 17 0 6 5 3 11 -7 9 -16 16 -48 18 -84 1 -18 26 -16
46 3 11 12 14 26 9 52 -4 21 -10 38 -15 40 -4 2 1 33 12 70 16 56 18 75 8 114
-6 26 -8 51 -5 57 4 5 2 12 -4 16 -13 8 -13 25 0 25 6 0 19 9 30 20 17 17 28
19 63 14 23 -4 59 -16 80 -27z m304 -3 c-3 -3 -12 -4 -19 -1 -8 3 -5 6 6 6 11
1 17 -2 13 -5z m-2262 -14 c3 -5 1 -10 -4 -10 -6 0 -11 5 -11 10 0 6 2 10 4
10 3 0 8 -4 11 -10z m-1145 -10 c0 -5 -7 -10 -16 -10 -8 0 -12 5 -9 10 3 6 10
10 16 10 5 0 9 -4 9 -10z m214 -152 c5 -9 8 -20 5 -23 -10 -9 -34 4 -47 26
-12 19 -11 20 9 17 12 -2 27 -11 33 -20z m-84 -26 c32 -26 17 -48 -15 -25 -24
18 -33 43 -16 43 5 0 19 -8 31 -18z m-65 -2 c3 -5 1 -10 -4 -10 -6 0 -11 5
-11 10 0 6 2 10 4 10 3 0 8 -4 11 -10z m185 6 c0 -3 -4 -8 -10 -11 -5 -3 -10
-1 -10 4 0 6 5 11 10 11 6 0 10 -2 10 -4z m-74 -114 c6 -4 14 -17 18 -29 6
-18 3 -23 -11 -24 -10 0 -13 -3 -5 -6 14 -6 16 -33 2 -33 -5 0 -10 4 -10 10 0
5 -8 17 -19 27 -14 13 -17 24 -10 41 9 23 17 26 35 14z m61 -84 c7 -16 10 -28
5 -28 -8 0 -33 59 -31 76 0 5 3 2 6 -6 3 -8 12 -27 20 -42z m-957 -221 c0 -40
-17 -24 -26 23 -7 32 -6 34 9 21 9 -7 17 -27 17 -44z m1568 -81 c0 -32 -4 -43
-15 -42 -9 0 -20 -8 -27 -19 -15 -26 -39 -44 -49 -38 -5 3 1 12 12 20 12 8 21
20 21 27 0 8 7 17 16 20 9 3 14 13 11 20 -3 8 1 17 10 20 11 5 13 10 4 20 -6
7 -8 16 -5 19 14 14 23 -6 22 -47z m-1511 24 c10 -11 23 -20 31 -20 7 0 17
-10 22 -22 9 -21 10 -21 9 -3 -2 34 0 37 16 21 8 -8 15 -26 15 -40 0 -19 5
-26 20 -26 11 0 20 5 20 10 0 17 19 11 29 -9 7 -11 7 -30 2 -49 -11 -38 6 -68
29 -51 11 8 12 12 3 16 -7 2 -13 20 -13 38 0 45 31 57 65 25 13 -12 28 -19 34
-15 6 3 11 0 11 -8 0 -8 11 -18 25 -21 25 -6 35 -26 14 -26 -23 0 -1 -23 23
-24 15 -1 24 2 22 6 -2 4 5 6 16 5 20 -1 27 -21 11 -31 -14 -9 15 -61 44 -80
14 -9 25 -24 25 -34 0 -15 -2 -15 -10 -2 -9 13 -12 13 -24 -3 -16 -21 -46 -13
-46 14 0 21 -20 27 -20 7 0 -7 -8 -3 -18 10 -9 12 -28 24 -40 27 -24 4 -61 42
-62 62 0 20 -21 26 -45 13 -17 -9 -34 -10 -62 -3 -38 10 -38 10 -13 21 23 10
22 11 -18 11 -34 1 -50 7 -73 30 -16 16 -29 34 -29 40 0 6 -4 11 -8 11 -10 0
-62 92 -62 109 0 18 39 12 57 -9z m1426 6 c8 -20 -4 -59 -22 -73 -12 -9 -12
-12 -3 -13 10 0 9 -8 -5 -30 -20 -35 -35 -34 -43 1 l-6 24 -7 -27 c-4 -16 -14
-28 -22 -28 -8 0 -15 -4 -15 -10 0 -15 11 -12 32 7 17 15 18 15 18 0 0 -20
-30 -57 -46 -57 -6 0 -19 -12 -29 -26 -13 -20 -19 -23 -31 -13 -11 9 -14 7
-14 -15 0 -19 -5 -26 -19 -26 -10 0 -24 -7 -31 -15 -7 -9 -18 -14 -23 -12 -6
2 -21 -7 -35 -20 -14 -13 -31 -23 -38 -23 -8 0 -14 -4 -14 -9 0 -4 -19 -7 -42
-6 -24 1 -53 -4 -65 -12 -20 -11 -23 -11 -23 1 0 8 -15 17 -36 20 -21 4 -34
12 -31 19 2 7 -3 17 -11 23 -11 8 -13 19 -8 40 7 27 9 28 21 11 12 -16 13 -16
18 3 3 11 16 24 29 30 12 5 30 14 38 19 16 10 116 41 131 41 5 0 9 -4 9 -10 0
-5 -7 -7 -15 -4 -21 8 -19 -6 3 -22 14 -11 19 -10 33 8 19 25 48 18 56 -12 7
-26 23 -26 23 1 0 13 -10 23 -30 31 -39 13 -35 27 14 43 20 7 43 21 50 31 7 9
22 18 32 19 48 4 76 21 114 70 15 19 15 19 -13 2 -16 -10 -32 -15 -35 -11 -4
4 -2 8 3 11 6 2 21 10 35 17 33 19 47 19 53 2z m-988 -246 c3 -5 1 -10 -4 -10
-6 0 -11 5 -11 10 0 6 2 10 4 10 3 0 8 -4 11 -10z m421 -107 c-10 -11 -19 -7
-22 10 -2 15 0 16 12 6 8 -6 12 -14 10 -16z"/>
<path d="M4620 6570 c0 -5 5 -10 10 -10 6 0 10 5 10 10 0 6 -4 10 -10 10 -5 0
-10 -4 -10 -10z"/>
<path d="M4080 5830 c0 -5 7 -10 15 -10 8 0 15 5 15 10 0 6 -7 10 -15 10 -8 0
-15 -4 -15 -10z"/>
<path d="M3700 5490 c0 -5 5 -10 10 -10 6 0 10 5 10 10 0 6 -4 10 -10 10 -5 0
-10 -4 -10 -10z"/>
<path d="M4001 5414 c0 -11 3 -14 6 -6 3 7 2 16 -1 19 -3 4 -6 -2 -5 -13z"/>
<path d="M5830 5368 c0 -9 5 -20 10 -23 13 -8 13 5 0 25 -8 13 -10 13 -10 -2z"/>
<path d="M5860 5278 c1 -16 24 -48 36 -48 4 0 3 5 -4 12 -7 7 -12 20 -12 30 0
10 -4 18 -10 18 -5 0 -10 -6 -10 -12z"/>
<path d="M5243 4943 c9 -2 23 -2 30 0 6 3 -1 5 -18 5 -16 0 -22 -2 -12 -5z"/>
<path d="M5018 4043 c6 -2 18 -2 25 0 6 3 1 5 -13 5 -14 0 -19 -2 -12 -5z"/>
<path d="M4672 3973 c-5 -10 -7 -24 -5 -30 3 -8 -5 -13 -22 -13 -17 0 -25 -4
-22 -12 2 -7 11 -11 18 -9 8 2 26 3 41 2 19 -1 28 5 33 20 4 11 4 23 1 26 -3
4 -6 1 -6 -5 0 -7 -5 -12 -10 -12 -6 0 -8 11 -4 25 7 29 -10 34 -24 8z"/>
<path d="M4760 3981 c0 -5 7 -12 16 -15 22 -9 24 -8 24 9 0 8 -9 15 -20 15
-11 0 -20 -4 -20 -9z"/>
<path d="M4780 3916 c-16 -16 -11 -36 9 -36 10 0 24 7 31 15 9 11 17 12 30 5
25 -13 30 -13 30 4 0 17 -85 27 -100 12z"/>
<path d="M5082 3903 c-10 -4 -10 -8 -1 -19 15 -18 29 -18 29 0 0 18 -11 25
-28 19z"/>
<path d="M3770 3890 c0 -5 5 -10 10 -10 6 0 10 5 10 10 0 6 -4 10 -10 10 -5 0
-10 -4 -10 -10z"/>
<path d="M4880 3870 c0 -5 4 -10 9 -10 6 0 13 5 16 10 3 6 -1 10 -9 10 -9 0
-16 -4 -16 -10z"/>
<path d="M3995 3596 c-19 -14 -19 -15 0 -37 11 -12 39 -30 62 -41 23 -10 45
-27 48 -38 5 -16 15 -20 55 -20 65 0 70 19 18 65 -37 34 -129 85 -154 85 -5 0
-19 -6 -29 -14z"/>
<path d="M4995 3250 c-3 -5 3 -10 14 -10 11 0 23 5 26 10 3 6 -3 10 -14 10
-11 0 -23 -4 -26 -10z"/>
<path d="M5412 2818 c-15 -15 -16 -45 0 -50 6 -2 16 -21 22 -42 11 -39 28 -50
34 -21 2 9 -8 32 -23 51 -16 21 -25 43 -22 55 6 22 5 23 -11 7z"/>
<path d="M5350 2805 c0 -8 2 -15 4 -15 2 0 6 7 10 15 3 8 1 15 -4 15 -6 0 -10
-7 -10 -15z"/>
<path d="M5370 2746 c0 -9 5 -16 10 -16 6 0 10 4 10 9 0 6 -4 13 -10 16 -5 3
-10 -1 -10 -9z"/>
<path d="M5315 2720 c-4 -6 -2 -17 4 -24 6 -7 8 -16 4 -19 -3 -4 -2 -7 4 -7 5
0 10 14 11 30 1 30 -11 40 -23 20z"/>
<path d="M5140 2713 c0 -5 5 -15 10 -23 8 -12 10 -11 10 8 0 12 -4 22 -10 22
-5 0 -10 -3 -10 -7z"/>
<path d="M5110 2665 c-7 -14 -11 -28 -7 -31 3 -3 13 8 22 25 8 17 12 31 7 31
-5 0 -15 -11 -22 -25z"/>
<path d="M5350 2670 c0 -5 5 -10 10 -10 6 0 10 5 10 10 0 6 -4 10 -10 10 -5 0
-10 -4 -10 -10z"/>
<path d="M5325 2605 c-5 -11 -10 -24 -13 -30 -3 -5 3 -3 13 7 9 9 15 22 12 30
-3 9 -7 7 -12 -7z"/>
<path d="M5280 2518 c0 -13 5 -30 10 -38 7 -11 10 -7 10 17 0 17 -4 35 -10 38
-6 3 -10 -4 -10 -17z"/>
<path d="M5790 3119 c0 -18 3 -29 7 -25 11 11 13 45 3 51 -6 4 -10 -7 -10 -26z"/>
<path d="M4270 2237 c0 -14 31 -47 44 -47 3 0 0 14 -9 30 -16 31 -35 40 -35
17z"/>
<path d="M4240 2150 c0 -5 5 -10 10 -10 6 0 10 5 10 10 0 6 -4 10 -10 10 -5 0
-10 -4 -10 -10z"/>
<path d="M7264 1888 c-3 -4 2 -8 10 -8 9 0 16 -4 16 -10 0 -5 14 -10 30 -10
36 0 39 12 8 28 -26 12 -57 12 -64 0z"/>
<path d="M7310 1830 c0 -5 5 -10 10 -10 6 0 10 5 10 10 0 6 -4 10 -10 10 -5 0
-10 -4 -10 -10z"/>
<path d="M4360 1310 c0 -5 5 -10 10 -10 6 0 10 5 10 10 0 6 -4 10 -10 10 -5 0
-10 -4 -10 -10z"/>
<path d="M4237 1303 c-4 -3 -7 -11 -7 -17 0 -6 5 -5 12 2 6 6 9 14 7 17 -3 3
-9 2 -12 -2z"/>
<path d="M4321 1264 c0 -11 3 -14 6 -6 3 7 2 16 -1 19 -3 4 -6 -2 -5 -13z"/>
<path d="M1790 7349 c0 -5 5 -7 10 -4 6 3 10 8 10 11 0 2 -4 4 -10 4 -5 0 -10
-5 -10 -11z"/>
<path d="M3182 6868 c-7 -7 -12 -16 -12 -22 0 -5 -6 -17 -14 -25 -11 -12 -12
-26 -6 -51 l8 -35 7 33 c4 17 11 32 15 32 4 0 10 10 13 23 2 12 8 30 12 40 8
20 -5 23 -23 5z"/>
<path d="M6158 4383 c-48 -8 -51 -20 -39 -169 7 -75 16 -157 21 -183 5 -25 12
-67 15 -93 3 -27 9 -48 11 -48 13 0 36 32 55 77 36 84 41 283 7 283 -4 0 -8
24 -8 54 0 62 -7 87 -24 85 -6 -1 -23 -4 -38 -6z"/>
<path d="M2407 4263 c-4 -3 -7 -16 -6 -27 0 -19 1 -19 10 3 10 24 8 36 -4 24z"/>
<path d="M2516 4235 c4 -8 8 -15 10 -15 2 0 4 7 4 15 0 8 -4 15 -10 15 -5 0
-7 -7 -4 -15z"/>
<path d="M2480 4109 c-9 -17 -8 -23 7 -35 17 -13 17 -14 -5 -20 -13 -4 -21
-13 -20 -23 2 -9 -3 -15 -9 -13 -7 1 -13 -7 -13 -18 0 -11 5 -20 11 -20 6 0 9
-7 5 -15 -3 -10 1 -15 13 -15 14 0 20 10 25 45 6 36 11 45 27 45 24 0 24 5 -2
42 -18 25 -19 32 -8 39 11 7 11 9 -3 9 -10 0 -22 -9 -28 -21z"/>
<path d="M2442 4065 c0 -16 2 -22 5 -12 2 9 2 23 0 30 -3 6 -5 -1 -5 -18z"/>
<path d="M2750 3990 c0 -5 5 -10 11 -10 5 0 7 5 4 10 -3 6 -8 10 -11 10 -2 0
-4 -4 -4 -10z"/>
<path d="M1985 3828 c-16 -5 -39 -13 -50 -18 -11 -4 -34 -13 -52 -20 -45 -17
-58 -70 -17 -70 8 0 14 -4 14 -10 0 -5 6 -10 13 -10 24 0 118 -50 140 -74 12
-13 32 -27 45 -31 23 -7 24 -3 24 100 0 14 0 52 -1 85 l-1 60 -42 -1 c-24 0
-56 -5 -73 -11z"/>
<path d="M1470 3727 c-19 -7 -41 -24 -50 -39 -14 -25 -13 -35 7 -115 12 -49
25 -115 29 -148 6 -65 7 -68 29 -71 16 -2 36 50 39 104 1 20 5 43 10 50 11 19
36 141 36 179 0 26 -5 33 -31 42 -18 6 -32 11 -33 10 -1 0 -17 -5 -36 -12z"/>
<path d="M2560 3719 c0 -5 5 -7 10 -4 6 3 10 8 10 11 0 2 -4 4 -10 4 -5 0 -10
-5 -10 -11z"/>
<path d="M2501 3708 c0 -7 4 -22 9 -33 8 -18 9 -17 9 7 1 15 -3 30 -9 33 -5 3
-10 0 -9 -7z"/>
<path d="M2665 3667 c-4 -10 -5 -21 -1 -24 10 -10 18 4 13 24 -4 17 -4 17 -12
0z"/>
<path d="M2568 3653 c7 -3 16 -2 19 1 4 3 -2 6 -13 5 -11 0 -14 -3 -6 -6z"/>
<path d="M1155 3529 c-16 -5 -52 -12 -80 -15 -27 -4 -60 -10 -73 -15 -13 -5
-37 -9 -54 -9 -16 0 -43 -10 -58 -22 -15 -13 -35 -27 -44 -33 -9 -5 -19 -24
-22 -42 -6 -29 -3 -33 21 -39 15 -4 43 -2 63 4 21 6 72 19 115 28 43 9 80 21
83 26 3 4 18 8 35 8 16 0 29 5 29 11 0 6 8 9 18 7 23 -6 58 32 54 57 -9 44
-29 52 -87 34z"/>
<path d="M311 3264 c0 -11 3 -14 6 -6 3 7 2 16 -1 19 -3 4 -6 -2 -5 -13z"/>
<path d="M0 3185 c0 -83 1 -85 20 -75 11 6 20 17 20 24 0 8 6 16 13 19 19 7
21 81 2 97 -8 7 -15 9 -15 6 0 -4 -9 -2 -20 4 -19 10 -20 8 -20 -75z"/>
<path d="M2144 3049 c-3 -5 -9 -7 -14 -4 -14 9 -30 -30 -30 -73 0 -70 65 -99
95 -42 18 35 19 60 4 94 -12 25 -45 41 -55 25z"/>
<path d="M2730 2990 c0 -5 7 -10 15 -10 8 0 15 5 15 10 0 6 -7 10 -15 10 -8 0
-15 -4 -15 -10z"/>
<path d="M5530 1978 c-12 -22 -12 -22 6 -6 10 10 15 20 12 24 -4 3 -12 -5 -18
-18z"/>
<path d="M2337 1843 c-24 -43 -40 -290 -25 -379 5 -30 4 -45 -6 -53 -28 -23
-206 -105 -306 -141 -238 -86 -483 -193 -825 -360 -162 -79 -218 -112 -294
-174 -85 -68 -231 -156 -261 -156 -22 0 -40 67 -36 132 4 50 1 68 -14 86 -22
27 -41 28 -65 2 -38 -42 -112 -33 -160 20 -16 18 -20 36 -20 94 0 90 32 162
84 188 41 20 74 55 66 68 -4 6 0 13 8 16 13 5 13 9 -1 34 -15 27 -20 28 -63
23 -39 -5 -50 -2 -68 16 -11 11 -32 21 -45 21 -14 0 -46 17 -73 40 -26 22 -68
57 -92 77 -24 20 -50 51 -57 69 -15 35 -27 43 -61 36 -22 -4 -23 -8 -23 -112
l0 -107 43 -7 c65 -10 107 -28 107 -46 0 -9 5 -21 11 -27 6 -6 8 -32 4 -70 -7
-53 -12 -66 -55 -112 -37 -41 -53 -51 -78 -51 l-32 0 0 -340 0 -340 33 -1 c17
-1 35 -1 38 -1 11 2 49 -41 83 -94 22 -35 30 -56 25 -70 -4 -10 -16 -43 -27
-72 l-21 -52 1323 0 1324 0 6 23 c3 12 6 67 6 122 0 122 25 608 40 771 25 275
47 456 86 687 4 20 3 37 -2 37 -23 0 -253 -78 -356 -121 -65 -27 -122 -49
-127 -49 -5 0 -16 12 -26 26 -12 19 -19 63 -26 168 -5 77 -12 151 -14 164 -5
22 -20 29 -28 15z"/>
<path d="M5323 1774 c-20 -18 -22 -22 -7 -15 21 10 52 41 41 41 -3 0 -19 -12
-34 -26z"/>
<path d="M956 1337 c3 -10 9 -15 12 -12 3 3 0 11 -7 18 -10 9 -11 8 -5 -6z"/>
<path d="M871 1333 c-1 -8 -17 -13 -45 -13 -57 0 -72 -16 -81 -82 -4 -29 -13
-63 -21 -75 -17 -27 -4 -30 31 -7 14 9 29 12 37 8 7 -5 21 -7 31 -6 10 2 24
-1 31 -7 18 -15 135 -16 149 -2 6 6 18 11 26 11 8 0 24 9 35 19 39 36 108 30
137 -12 3 -5 24 -11 45 -14 32 -4 43 -1 62 19 l22 25 -18 59 -18 59 -53 1
c-37 1 -54 -2 -58 -12 -3 -9 -13 -12 -24 -9 -11 4 -19 2 -19 -4 0 -5 -12 -8
-27 -7 -16 2 -31 -2 -35 -8 -5 -7 -8 -3 -8 9 0 17 -2 17 -10 5 -9 -13 -10 -13
-10 0 0 13 -1 13 -10 0 -5 -8 -10 -10 -10 -3 0 6 -13 10 -32 8 -18 -1 -39 2
-45 8 -9 6 -13 6 -13 -1 0 -11 -18 -11 -37 1 -7 5 -13 5 -14 0 -1 -4 -5 3 -9
17 -4 14 -8 19 -9 13z"/>
<path d="M3280 1282 c0 -19 50 -115 57 -108 6 6 -21 68 -43 101 -8 11 -14 14
-14 7z"/>
<path d="M3387 1070 c3 -11 7 -20 9 -20 2 0 4 9 4 20 0 11 -4 20 -9 20 -5 0
-7 -9 -4 -20z"/>
<path d="M3850 740 c-2 -18 -4 -20 -7 -7 -4 17 -33 25 -33 9 0 -15 25 -62 33
-62 4 0 7 -6 7 -13 0 -7 14 -26 30 -42 35 -33 40 -18 13 36 -10 19 -23 50 -29
69 -11 31 -12 32 -14 10z"/>
<path d="M2955 233 c-42 -44 -47 -66 -33 -154 10 -64 16 -79 30 -79 16 0 18
11 18 94 0 51 5 107 11 125 15 43 6 48 -26 14z"/>
</g>
</svg>
